# xmcd
#
# Track frame offsets:
#	150
#	14571
#	15711
#	35028
#	57554
#	78103
#	105778
#	123242
#	149205
#	165403
#	184604
#
# Disc length: 2687 seconds
#
# Revision: 1
# Processed by: cddbd v1.4PL0 Copyright (c) Steve Scherf et al.
# Submitted via: audiograbber 1.80
#
DISCID=8b0a7d0b
DTITLE=Merita's - Igra
DYEAR=1900
DGENRE=
TTITLE0=Budim se
TTITLE1=Interlude
TTITLE2=Sami na ulici
TTITLE3=Oblak
TTITLE4=Gdje
TTITLE5=Nije vrijeme
TTITLE6=Zid
TTITLE7=Igra
TTITLE8=5 Brzina
TTITLE9=Ispred nas
TTITLE10=Nesto za kraj
EXTD=
EXTT0=
EXTT1=
EXTT2=
EXTT3=
EXTT4=
EXTT5=
EXTT6=
EXTT7=
EXTT8=
EXTT9=
EXTT10=
PLAYORDER=
